# xmcd
#
# Track frame offsets: 
#        150
#        17465
#        34518
#        51997
#
# Disc length: 919 seconds
#
# Revision: 1
# Processed by: cddbd v1.5.2PL0 Copyright (c) Steve Scherf et al.
# Submitted via: ExactAudioCopy v0.99pb5
#
DISCID=25039504
DTITLE=Music for Learners - Just Verbs 2
DYEAR=1999
DGENRE=Vocal
TTITLE0=Easy
TTITLE1=64 Verbs
TTITLE2=Easy Playback
TTITLE3=64 Verbs Playback
EXTD=YEAR: 2001
EXTT0=
EXTT1=
EXTT2=
EXTT3=
PLAYORDER=
